<svg xmlns="http://www.w3.org/2000/svg" viewBox="0 0 1189.76 199.53"><defs><style>.cls-1{fill:#f2f2f2;}.cls-2{fill:#444;}.cls-3{fill:#757575;}.cls-4{fill:#a8a8a8;}.cls-5{fill:#fff;}.cls-6{fill:#cecece;}.cls-7{fill:#a5a5a5;}</style></defs><title>Asset 12правильная зона (старые полоски)</title><g id="Layer_2" data-name="Layer 2"><g id="Layer_7" data-name="Layer 7"><polygon class="cls-1" points="1086.29 141.34 1086.29 165.34 1189.75 165.35 1189.75 161.54 1120.85 161.54 1120.85 141.34 1086.29 141.34"/><rect class="cls-1" x="1086.3" y="23.62" width="103.46" height="18.72"/><polygon class="cls-1" points="1086.29 182.34 1086.29 196.1 1120.84 196.1 1189.75 196.1 1189.75 182.35 1086.29 182.34"/><rect class="cls-1" x="1086.29" y="59.34" width="34.56" height="24"/><rect class="cls-1" x="1086.29" y="100.34" width="86.24" height="24"/><rect class="cls-1" x="929.44" y="182.33" width="34.56" height="13.76"/><rect class="cls-1" x="1032.91" y="59.34" width="34.56" height="24"/><rect class="cls-1" x="929.44" y="141.33" width="34.56" height="24"/><rect class="cls-1" x="1032.91" y="23.62" width="34.56" height="18.72"/><polygon class="cls-1" points="1052.38 182.34 1067.46 196.09 1067.46 182.34 1052.38 182.34"/><polygon class="cls-1" points="994.99 83.33 968.65 59.33 929.44 59.33 929.44 83.33 994.99 83.33"/><polygon class="cls-1" points="929.45 42.33 949.99 42.33 929.45 23.61 929.45 42.33"/><polygon class="cls-1" points="1032.9 100.34 1032.9 117.88 1013.65 100.33 929.44 100.33 929.44 124.33 964 124.33 964 101.72 988.79 124.33 1067.46 124.34 1067.46 100.34 1032.9 100.34"/><polygon class="cls-1" points="1007.43 141.34 1033.74 165.34 1067.46 165.34 1067.46 141.34 1007.43 141.34"/><path class="cls-1" d="M880,182.33H786.25q20.65,13.74,46.89,13.76T880,182.33Z"/><path class="cls-1" d="M781.47,109.84a54.83,54.83,0,0,1,.82-9.52H747.4c-.31,3.11-.49,6.28-.49,9.52a92.51,92.51,0,0,0,1.14,14.48h35.36A53.36,53.36,0,0,1,781.47,109.84Z"/><path class="cls-1" d="M884.94,109.84a53,53,0,0,1-2,14.49h35.27a92.61,92.61,0,0,0,.65-24H884.11A54.62,54.62,0,0,1,884.94,109.84Z"/><path class="cls-1" d="M874.2,141.33a58.69,58.69,0,0,1-4.51,5,51.66,51.66,0,0,1-73.08,0,56.94,56.94,0,0,1-4.48-5.06h-39.5a83.39,83.39,0,0,0,14.56,24H899.06a83,83,0,0,0,14.59-24Z"/><path class="cls-1" d="M779.58,42.32H886.66q-23-18.7-53.5-18.73T779.58,42.32Z"/><path class="cls-1" d="M788.69,83.32a55.16,55.16,0,0,1,7.92-10,49.72,49.72,0,0,1,24.79-14H763.27a81.15,81.15,0,0,0-12.37,24Z"/><path class="cls-1" d="M844.86,59.32a50.07,50.07,0,0,1,24.83,14,54.43,54.43,0,0,1,8,10H915.4a81.21,81.21,0,0,0-12.39-24Z"/><polygon class="cls-1" points="609 42.31 720.84 42.32 729.8 23.6 609.01 23.59 609 42.31"/><polygon class="cls-1" points="635.19 141.31 623.71 165.31 729.79 165.32 729.79 161.51 663.78 161.51 673.45 141.31 635.19 141.31"/><polygon class="cls-1" points="654.8 100.31 643.32 124.31 681.59 124.31 693.08 100.31 654.8 100.31"/><polygon class="cls-1" points="674.41 59.31 662.93 83.31 701.21 83.31 712.7 59.31 674.41 59.31"/><polygon class="cls-1" points="615.58 182.31 609 196.06 729.79 196.07 729.79 182.32 615.58 182.31"/><rect class="cls-1" x="136.52" y="182.28" width="103.46" height="13.78"/><polygon class="cls-1" points="136.52 141.28 136.52 165.28 239.99 165.28 239.99 161.51 171.08 161.51 171.08 141.28 136.52 141.28"/><rect class="cls-1" x="136.52" y="23.59" width="34.56" height="18.69"/><rect class="cls-1" x="136.52" y="100.28" width="34.56" height="24"/><rect class="cls-1" x="136.52" y="59.28" width="34.56" height="24"/><polygon class="cls-1" points="34.56 165.27 34.56 141.27 0 141.27 0 144.28 0 165.27 34.56 165.27"/><rect class="cls-1" y="182.27" width="34.56" height="13.8"/><polygon class="cls-1" points="78.64 196.06 120.8 196.06 111.16 182.28 69.01 182.27 78.64 196.06"/><path class="cls-1" d="M80.43,100.27c-.56.67-1.15,1.32-1.79,2a24.91,24.91,0,0,1-18.3,7.6H34.56v-9.56H0v24H105.24a66.92,66.92,0,0,0,4.59-5.73,58.17,58.17,0,0,0,8.8-18.27Z"/><polygon class="cls-1" points="40.38 141.27 57.14 165.27 99.28 165.28 82.52 141.27 40.38 141.27"/><path class="cls-1" d="M60.34,23.59H0V42.27H103.92c-.3-.3-.58-.61-.88-.92Q85.28,23.59,60.34,23.59Z"/><path class="cls-1" d="M68.4,59.27a25.34,25.34,0,0,1,10.24,6.42,24.91,24.91,0,0,1,7.58,17.58h34.56a58.67,58.67,0,0,0-5.14-24Z"/><rect class="cls-1" y="59.27" width="34.56" height="24"/></g><g id="Layer_10" data-name="Layer 10"><polygon class="cls-2" points="303.1 143.01 312.3 145.42 317.34 148.44 322.04 154.94 324.24 161.2 324.91 168.69 323.32 176.96 320.15 183.53 314.04 189.74 303.99 192.73 301.82 190.83 306.98 179.96 310.39 167.87 310 160.51 305.08 148.44 301.82 143.07 303.1 143.01"/><path class="cls-3" d="M280.06,146.59s8.41-3.58,9-3.58,12.27,3.58,12.27,3.58l5.94,6.63,3.34,9-.41,12.4-3.5,8-10.08,8.24-13.25,0-8.24-7.6-4.8-13.77L271.9,158Z"/><polygon class="cls-3" points="527.07 127.52 534.02 138.1 537.35 152.71 537.35 163.84 534.92 175.22 530.73 186.9 521.95 196.3 513.84 196.3 507.99 191.28 503.16 181.59 499.89 171.59 499.9 166.92 508.6 139.75 522.18 124.8 527.07 127.52"/><polygon class="cls-2" points="393.93 118.01 416.25 118.36 426.32 125.29 432.81 143.88 434.45 156.05 432.24 172.85 426.99 187.32 417.94 196.3 406.16 196.27 393.93 195.72 396.65 188.11 404.2 165.38 403.93 145.89 397.81 126.32 393.93 118.01"/><polygon class="cls-2" points="527.07 123.72 549.68 124.05 559.88 130.54 566.45 147.96 568.1 159.36 565.87 175.11 560.55 188.67 551.38 197.08 539.46 197.05 527.07 196.54 529.82 189.41 537.47 168.1 537.2 149.85 531 131.5 527.07 123.72"/><polygon class="cls-3" points="375.73 122.36 381.86 117.93 389.04 118.01 396.38 125.62 403.44 146 403.66 169.37 396.76 188.86 389.58 197.08 375.73 193.28 366.76 175.89 365.13 156.05 368.45 134.05 375.73 122.36"/><path class="cls-4" d="M383.06,71.82s13.59-3.26,23.37-2.18c0,0,4.07-2.71,14.13-3.53l-9.51-.27s-4.62-.81-5.16-3.8-1.36-6.53-1.36-6.53-1.36-1.9,5.43-3,17.93-3.54,27.17-1.91c0,0,5.71.82,6,3.26s0,4.9-.54,5.44-4.89,3-4.89,3H445l-2.17,5.16L439.51,69,426,73.72,413.22,80l-15.49,7.34-15.21,3.53-.82-12.5Z"/><path class="cls-5" d="M510,74.26l11.14-25,6,.54,4.62,4.07h2.45s16.57-7.6,32.06-7.33c0,0,2.45.54,3.53-.82s9-20.38,9-20.38.54-1.35-1.63-1.9a46,46,0,0,0-6-.81s-14.67,6-26.36,14.67l-29.07-4.89L511.58,30l-30.7-4.89-3.53,1.09L446.1,22.64l6.25-19.57s.81-1.9-3.26-2.44-4.62-1.09-6.52,0-21.74,16.84-34,31.25c0,0-1.08,1.35.55,3.26s3,3,5.7,3L420,34.59l34.78,4.35s-3,14.66-15.06,29.75S442,72.9,442,72.9h6.53s8.15-16,12.77-28.8L463,40.3l.27-1.36,2.72-1.63,27.44,4.62,3,3,16.84,2.44-.27,1.91S510,56.6,501.26,71C501.26,71,506.69,71.27,510,74.26Z"/><path class="cls-2" d="M518.11,84.05s-1.63-9-7.61-11.15-16.58-3.26-16.58-3.26L467,66.38l-9,1.91a24.87,24.87,0,0,0-10.33,6.25c-4.35,4.61-13.86,9.51-13.86,9.51L414,85.68,393.11,102,388,115l13.59,2.18,17.12,1.35,7,5.77,4.38,10.54,4.62,19-1.52,13.63,65.18.21a6.16,6.16,0,0,0,6.17-6.16V115.29Z"/><polygon class="cls-3" points="478.71 168.82 462.68 167.6 453.44 152.52 453.17 128.88 460.5 137.57 472.73 143.82 480.34 150.34 478.71 168.82"/><path class="cls-6" d="M518,83.73c-.35-1.6-2.23-8.89-7.54-10.83-6-2.17-16.58-3.26-16.58-3.26L467,66.38l-9,1.91A25.35,25.35,0,0,0,450,72.52L448,74.81l-3.8,7.88a22.31,22.31,0,0,1-3.81,6.79c-2.44,2.72-3.8,5.43-1.63,9.24,0,0,1.91,1.9,6.25,1.09,0,0,4.89-3.27,6.8-12.23s7.06-9,7.06-9a5,5,0,0,0,3.53,1.63c2.18,0,4.62-1.2,6.8-.06s13.85,2.24,13.85,2.24l25,1.63Z"/><path class="cls-5" d="M546.92,120.44h0l-28.71-.25h0a2.34,2.34,0,0,0-.88.17c-11.76.93-20.83,18-20.83,39.51s9.07,38.57,20.83,39.5a2.34,2.34,0,0,0,.88.17h28.71c12.26,0,21.85-17.37,21.85-39.55S559.15,120.47,546.92,120.44Zm-45.57,39.42c0-18.79,7.76-34.66,17-34.66s17,15.87,17,34.66-7.77,34.65-17,34.65S501.35,178.64,501.35,159.86Zm45.53,34.78h-18c6.79-6.64,11.3-19.58,11.3-34.78s-4.47-28-11.2-34.69l17.9.16h0c9.2,0,17,15.87,17,34.65S556.08,194.64,546.88,194.64Z"/><path class="cls-3" d="M387.25,87.85,383.2,72A136.42,136.42,0,0,0,349,94.51c-16.85,15.21-19.56,23.36-19.56,23.36l.81,5.71,15-4.89,23.36-18.21Z"/><path class="cls-2" d="M319.23,129.17s4.19-9.39,10.17-11l4.34,3.26s14-16.88,28.73-23,29.42-14,46.27-16.69-30.16,29.34-30.16,29.34l-3.36,10.46L365,152.11l.82,23.91-1.91-.54s-22.82-18.48-31.51-23.1L321,150.75l-12-7.61L296.27,143s-3.83-7.47-18.23-5.57l1.09-1.9,6.25-4.62,19.29-1.63Z"/><path class="cls-5" d="M335,119.91s16.3-17.12,29.34-22.28a54.79,54.79,0,0,1,9.51-7.06L373,81.06S358.61,89.48,350.18,99s-16.57,19.56-16.57,19.56Z"/><path class="cls-5" d="M327.36,167.46c0-14.83-10.24-26.9-22.83-26.9H289.59a2.25,2.25,0,0,0-.58.08c-11.81,1-21.16,12.65-21.16,26.82s9.52,26,21.48,26.86h0c.44,0,.89,0,1.34,0l1.05,0,12.8,0h0C317.12,194.36,327.36,182.3,327.36,167.46Zm-54.62,0c0-12.13,8.05-22,17.94-22s17.93,9.88,17.93,22c0,11.75-7.54,21.38-17,22H289.7C280.26,188.81,272.74,179.2,272.74,167.46Zm31.79,22h-.74c5.87-4.87,9.71-12.92,9.71-22s-3.84-17.13-9.72-22h.75c9.89,0,17.94,9.88,17.94,22S314.42,189.47,304.53,189.47Z"/><path class="cls-6" d="M521.76,88.45A2.12,2.12,0,0,1,523,86.8c3.12-1.47,12.52-5.76,18.79-7.1,6.68-1.43,15,6.36,17,8.27a2.21,2.21,0,0,1,.56,1l2,7.67a2.14,2.14,0,0,1-1.57,2.61l-1.93.45a2.17,2.17,0,0,1-1.13,0L552.8,98.4a2.19,2.19,0,0,0-1.47.07c-3.52,1.48-18.87,8.66-27.25,24.7C515.4,139.79,520.76,96.18,521.76,88.45Z"/><path class="cls-5" d="M333.61,144.91s-14.13-8.69-26.36-6.25l-4.35-.54s-6.11-7.2-13.17-6.66c-5,.38-9.44,3.88-11.62,5.91a.51.51,0,0,1-.78-.62c1-1.78,3.4-4.57,9.41-7.73,10.32-5.44,19.29-6.53,29.61-1.36s15.76,10.59,19,15.48S333.61,144.91,333.61,144.91Z"/><path class="cls-6" d="M445.23,80.21,444.61,72s2.44-10.32-30.71,5.71-39.94,25-39.94,25-19.29,18.2-10.06,14.94,12.5,1.09,12.5,1.09l12.1-2.85s20.71-25.46,52.81-30.69A4.66,4.66,0,0,0,445.23,80.21Z"/><path class="cls-5" d="M414.07,114.21h0l-29.35-.28h0a2.41,2.41,0,0,0-.93.19c-12,1-21.21,19.37-21.21,42.61s9.23,41.58,21.21,42.61a2.41,2.41,0,0,0,.93.19H414c12.49,0,22.28-18.74,22.28-42.66S426.55,114.24,414.07,114.21ZM373,184.08c-3.58-7.26-5.55-17-5.55-27.35s2-20.09,5.55-27.35c3.27-6.62,7.58-10.42,11.84-10.42s8.57,3.8,11.83,10.42c3.58,7.26,5.56,17,5.56,27.35s-2,20.09-5.56,27.35c-3.26,6.62-7.58,10.42-11.83,10.42S376.26,190.7,373,184.08ZM414,194.64H395.21c7.13-7,11.9-21.21,11.9-37.91s-4.73-30.74-11.8-37.81l18.7.18h0c4.25,0,8.57,3.79,11.83,10.41,3.58,7.27,5.56,17,5.56,27.36s-2,20.08-5.56,27.35C422.61,190.84,418.29,194.64,414,194.64Z"/><rect class="cls-7" x="503.16" y="81.06" width="13.59" height="74.99" rx="1.05"/><path class="cls-7" d="M446.92,75.89c0-3.38-1.7-6.27-4.08-7.39V83.28C445.22,82.17,446.92,79.28,446.92,75.89Z"/><path class="cls-7" d="M434.42,75.89c0,4.36,2.79,7.88,6.25,7.88V68C437.21,68,434.42,71.54,434.42,75.89Z"/><path class="cls-7" d="M442.84,68h-2.17a5.22,5.22,0,0,1,2.17.49Z"/><path class="cls-7" d="M442.84,83.77v-.49a5.06,5.06,0,0,1-2.17.49Z"/><path class="cls-7" d="M440.67,68V83.77a5.06,5.06,0,0,0,2.17-.49V68.5A5.22,5.22,0,0,0,440.67,68Z"/><ellipse class="cls-5" cx="442.84" cy="75.89" rx="6.25" ry="7.88"/><path class="cls-7" d="M555.33,87.31a7.35,7.35,0,0,0-4.16-6.88V94.19A7.37,7.37,0,0,0,555.33,87.31Z"/><path class="cls-7" d="M542.56,87.31c0,4,2.86,7.33,6.39,7.33V80C545.42,80,542.56,83.25,542.56,87.31Z"/><path class="cls-7" d="M551.17,80H549a5.55,5.55,0,0,1,2.22.46Z"/><path class="cls-7" d="M551.17,94.64v-.45a5.72,5.72,0,0,1-2.22.45Z"/><path class="cls-7" d="M549,80V94.64a5.72,5.72,0,0,0,2.22-.45V80.43A5.55,5.55,0,0,0,549,80Z"/><ellipse class="cls-5" cx="551.33" cy="87.31" rx="5.9" ry="7.34"/><path class="cls-7" d="M563.82,90.7a4.58,4.58,0,0,0-2.24-4.2v8.41A4.61,4.61,0,0,0,563.82,90.7Z"/><path class="cls-7" d="M557,90.7c0,2.48,1.54,4.49,3.43,4.49v-9C558.5,86.22,557,88.23,557,90.7Z"/><path class="cls-7" d="M561.58,86.22h-1.19a2.7,2.7,0,0,1,1.19.28Z"/><path class="cls-7" d="M561.58,95.19v-.28a2.7,2.7,0,0,1-1.19.28Z"/><path class="cls-7" d="M560.39,86.22v9a2.7,2.7,0,0,0,1.19-.28V86.5A2.7,2.7,0,0,0,560.39,86.22Z"/><ellipse class="cls-5" cx="561.67" cy="90.7" rx="3.17" ry="4.48"/><path class="cls-7" d="M431.91,77.66a5.59,5.59,0,0,0-3.17-5.22V82.88A5.58,5.58,0,0,0,431.91,77.66Z"/><path class="cls-7" d="M422.19,77.66c0,3.08,2.17,5.57,4.86,5.57V72.09C424.36,72.09,422.19,74.58,422.19,77.66Z"/><path class="cls-7" d="M428.74,72.09h-1.69a4.23,4.23,0,0,1,1.69.35Z"/><path class="cls-7" d="M428.74,83.23v-.35a4.23,4.23,0,0,1-1.69.35Z"/><path class="cls-7" d="M427.05,72.09V83.23a4.23,4.23,0,0,0,1.69-.35V72.44A4.23,4.23,0,0,0,427.05,72.09Z"/><ellipse class="cls-5" cx="428.74" cy="77.66" rx="4.86" ry="5.57"/><rect class="cls-7" x="462.67" y="77.8" width="14.67" height="77.44" rx="1.13"/><polygon class="cls-7" points="469.74 77.8 477.08 77.8 477.35 155.23 469.74 155.24 469.74 77.8"/><polygon class="cls-7" points="528.43 103.34 521.64 104.15 522.45 125.62 528.43 126.43 528.43 103.34"/><polygon class="cls-7" points="517.72 156.05 509.95 156.05 509.95 81.06 517.56 81.06 517.72 156.05"/><rect class="cls-5" x="510.77" y="81.06" width="13.59" height="74.99" rx="1.05"/><path class="cls-7" d="M451,119.1a26.34,26.34,0,0,0,11.3,3.26V98.47a18.93,18.93,0,0,0-11.56,5.17,9.42,9.42,0,0,1-4.21,2.43,40.91,40.91,0,0,0-13.16,6.13A2.66,2.66,0,0,0,435,117C440,116.82,446.37,117.07,451,119.1Z"/><rect class="cls-5" x="457.78" y="98.45" width="10.05" height="23.91" rx="0.77"/><rect class="cls-5" x="523.54" y="103.34" width="10.05" height="23.1" rx="0.77"/><path class="cls-5" d="M450.72,130A14.28,14.28,0,0,0,461,142.47h4.08a5,5,0,0,0,2.45-4.08s0-4.62-1.91-4.62-6.25.54-7.06-7.34c-.62-6-13.49-4.15-19.75-2.91a1,1,0,0,0-.15,1.94Z"/><polygon class="cls-2" points="484.41 122.79 503.16 123.44 509.95 149.07 509.95 163.66 504.52 169.37 478.58 168.8 478.71 155.78 484.41 122.79"/><polygon class="cls-6" points="503.16 123.44 503.16 94.4 484.41 93.06 483.87 122.9 503.16 123.44"/><polygon class="cls-4" points="484.68 127.52 500.99 127.52 506.96 148.99 506.96 158.77 487.4 158.22 487.13 148.72 484.68 127.52"/><rect class="cls-5" x="469.74" y="77.8" width="14.67" height="77.44" rx="1.13"/></g></g></svg>