<svg xmlns="http://www.w3.org/2000/svg" width="44" height="28" viewBox="0 0 44 28">
    <g fill="none" fill-rule="evenodd">
        <path d="M0 0H48V48H0z" transform="translate(-2 -10)"/>
        <g fill-rule="nonzero" transform="translate(-2 -10) translate(2 10)">
            <path fill="#444" d="M4.997 20.021L6.285 20.359 6.99 20.782 7.648 21.692 7.956 22.568 8.05 23.617 7.827 24.774 7.383 25.694 6.53 26.564 5.122 26.982 4.818 26.716 5.54 25.194 6.019 23.502 5.963 22.471 5.274 20.782 4.818 20.03z"/>
            <path fill="#757575" d="M1.773 20.523s1.177-.502 1.26-.502c.082 0 1.717.502 1.717.502l.83.928.468 1.26-.057 1.736-.49 1.12-1.41 1.153H2.235l-1.153-1.064-.672-1.927.224-1.612 1.138-1.594zM36.342 17.853L37.316 19.334 37.78 21.379 37.78 22.938 37.44 24.531 36.854 26.166 35.625 27.482 34.49 27.482 33.672 26.779 32.996 25.423 32.538 24.023 32.539 23.369 33.757 19.565 35.657 17.472z"/>
            <path fill="#444" d="M17.709 16.521L20.834 16.57 22.242 17.541 23.152 20.143 23.38 21.847 23.07 24.199 22.336 26.225 21.069 27.482 19.42 27.478 17.709 27.401 18.09 26.335 19.146 23.153 19.11 20.425 18.252 17.685zM36.342 17.321L39.506 17.367 40.933 18.276 41.853 20.714 42.084 22.31 41.772 24.515 41.027 26.414 39.745 27.591 38.076 27.587 36.342 27.516 36.728 26.517 37.799 23.534 37.759 20.979 36.892 18.41z"/>
            <path fill="#757575" d="M15.162 17.13L16.02 16.51 17.025 16.521 18.052 17.587 19.04 20.44 19.071 23.712 18.105 26.44 17.1 27.591 15.162 27.059 13.906 24.625 13.678 21.847 14.143 18.767z"/>
            <path fill="#A8A8A8" d="M16.188 10.055s1.902-.457 3.27-.305c0 0 .571-.38 1.978-.495l-1.337-.037s-.646-.114-.722-.532c-.075-.419-.19-.915-.19-.915s-.19-.266.76-.42c.95-.154 2.51-.495 3.802-.267 0 0 .8.115.84.456.04.342 0 .686-.076.762-.075.076-.684.42-.684.42h1.029l-.304.722-.465.216-1.89.66-1.79.88-2.167 1.028-2.13.494-.115-1.75.19-.917z"/>
            <path fill="#FFF" d="M33.954 10.396l1.56-3.5.839.076.646.57h.343s2.32-1.064 4.487-1.026c0 0 .343.075.494-.115.151-.19 1.26-2.853 1.26-2.853s.075-.19-.228-.266c-.278-.057-.558-.094-.84-.114 0 0-2.053.84-3.688 2.054l-4.07-.685-.582-.337-4.298-.685-.494.153-4.373-.494.875-2.74s.114-.266-.457-.342c-.57-.075-.646-.152-.912 0-.266.153-3.042 2.358-4.758 4.375 0 0-.151.19.077.457.228.267.42.42.797.42l.727-.501 4.867.609s-.42 2.052-2.107 4.165c-1.688 2.112.319.589.319.589h.912s1.14-2.24 1.787-4.032l.228-.532.038-.19.38-.229 3.841.647.42.42 2.358.342-.04.267s-.408 1.025-1.632 3.041c0 0 .76.038 1.224.456z"/>
            <path fill="#444" d="M35.088 11.767s-.228-1.26-1.065-1.561c-.837-.301-2.32-.456-2.32-.456l-3.767-.457-1.26.268c-.546.168-1.042.469-1.445.875-.609.645-1.94 1.331-1.94 1.331l-2.772.228-2.923 2.285-.724 1.82 1.902.305 2.396.19.98.807.612 1.476.647 2.66-.213 1.908 9.122.03c.23 0 .449-.091.61-.253.163-.162.254-.381.254-.61V16.14l1.906-4.374z"/>
            <path fill="#757575" d="M29.574 23.635L27.33 23.464 26.037 21.353 25.999 18.043 27.025 19.26 28.737 20.135 29.802 21.048z"/>
            <path fill="#CECECE" d="M35.074 11.722c-.05-.224-.312-1.244-1.055-1.516-.84-.304-2.32-.456-2.32-.456l-3.763-.457-1.26.268c-.41.127-.795.327-1.134.592l-.265.32-.531 1.104c-.121.345-.3.667-.532.95-.343.381-.533.76-.23 1.294 0 0 .268.266.875.152 0 0 .686-.457.952-1.712.265-1.254.988-1.26.988-1.26.127.14.305.222.494.228.305 0 .646-.168.951-.008.305.16 1.94.314 1.94.314l3.499.228 1.39-.04z"/>
            <path fill="#FFF" d="M39.12 16.862l-4.018-.035c-.042 0-.084.008-.123.023-1.646.13-2.916 2.52-2.916 5.532 0 3.011 1.27 5.4 2.916 5.53.039.016.08.024.123.024h4.018c1.715 0 3.058-2.432 3.058-5.537 0-3.106-1.347-5.533-3.058-5.537zm-6.378 5.518c0-2.63 1.086-4.852 2.38-4.852 1.293 0 2.379 2.222 2.379 4.852 0 2.631-1.088 4.851-2.38 4.851-1.291 0-2.379-2.221-2.379-4.85zm6.372 4.87h-2.519c.949-.93 1.58-2.742 1.58-4.87s-.626-3.92-1.567-4.856l2.505.022c1.287 0 2.379 2.222 2.379 4.851 0 2.63-1.09 4.853-2.378 4.853z"/>
            <path fill="#757575" d="M16.774 12.299l-.567-2.219c-1.744.804-3.357 1.866-4.785 3.151-2.358 2.13-2.737 3.27-2.737 3.27l.113.8 2.093-.684 3.27-2.55 2.613-1.768z"/>
            <path fill="#444" d="M7.255 18.084s.586-1.315 1.423-1.54l.609.456s1.96-2.363 4.02-3.22c2.06-.857 4.116-1.96 6.475-2.336 2.358-.377-4.221 4.107-4.221 4.107l-.47 1.465-1.43 4.28.113 3.344-.266-.076s-3.195-2.587-4.412-3.234l-1.592-.225-1.68-1.065-1.783-.02s-.536-1.046-2.55-.78l.152-.266.874-.647 2.7-.228 2.038-.015z"/>
            <path fill="#FFF" d="M9.463 16.787s2.281-2.396 4.106-3.119c.407-.376.853-.708 1.331-.988l-.119-1.332s-2.015 1.18-3.195 2.512c-1.18 1.333-2.319 2.738-2.319 2.738l.196.19zM8.392 23.444c0-2.076-1.433-3.766-3.193-3.766H3.107c-.028 0-.055.004-.082.012-1.652.14-2.96 1.77-2.96 3.754s1.331 3.64 3.005 3.76h2.126c1.763.006 3.196-1.682 3.196-3.76zm-7.644 0c0-1.698 1.12-3.08 2.511-3.08s2.51 1.384 2.51 3.08c0 1.645-1.056 2.994-2.38 3.08h-.267c-1.321-.09-2.374-1.436-2.374-3.08zm4.45 3.08h-.104c.821-.681 1.359-1.808 1.359-3.08 0-1.27-.538-2.398-1.36-3.08H5.2c1.383 0 2.51 1.384 2.51 3.08 0 1.697-1.127 3.082-2.51 3.082v-.002z"/>
            <path fill="#CECECE" d="M35.599 12.383c.014-.102.08-.19.175-.231.436-.206 1.752-.806 2.63-.994.934-.2 2.098.89 2.378 1.158.038.039.065.087.079.14l.28 1.074c.02.077.007.16-.034.228-.041.069-.108.118-.186.137l-.27.063c-.052.014-.106.014-.157 0l-.543-.172c-.067-.02-.14-.017-.204.01-.494.207-2.641 1.212-3.815 3.458-1.223 2.317-.473-3.789-.333-4.871z"/>
            <path fill="#FFF" d="M9.267 20.287s-1.977-1.216-3.689-.875l-.609-.075s-.855-1.008-1.843-.933c-.7.054-1.32.544-1.626.828-.025.023-.064.024-.091.003-.027-.022-.034-.06-.017-.09.14-.25.475-.64 1.316-1.082 1.444-.762 2.7-.914 4.144-.19 1.444.723 2.205 1.482 2.659 2.167.453.684-.244.247-.244.247z"/>
            <path fill="#CECECE" d="M24.888 11.23l-.086-1.15s.341-1.445-4.298.8c-4.64 2.244-5.59 3.5-5.59 3.5s-2.7 2.547-1.406 2.091c1.293-.456 1.749.153 1.749.153l1.692-.4s2.898-3.57 7.39-4.303c.335-.053.574-.353.55-.692z"/>
            <path fill="#FFF" d="M20.529 15.99l-4.106-.04c-.045 0-.09.01-.13.027-1.68.14-2.969 2.712-2.969 5.965 0 3.254 1.292 5.821 2.969 5.966.04.017.085.026.13.026h4.096c1.748 0 3.118-2.623 3.118-5.972s-1.363-5.968-3.108-5.973zM14.78 25.77c-.502-1.016-.778-2.38-.778-3.829 0-1.449.28-2.812.778-3.829.456-.927 1.06-1.459 1.656-1.459.596 0 1.2.532 1.655 1.46.501 1.016.778 2.38.778 3.828 0 1.45-.28 2.813-.778 3.83-.456.926-1.06 1.458-1.655 1.458s-1.201-.532-1.656-1.459zm5.738 1.479h-2.631c.998-.98 1.665-2.97 1.665-5.308 0-2.338-.662-4.303-1.651-5.293l2.618.025c.595 0 1.2.53 1.656 1.457.501 1.018.778 2.38.778 3.83 0 1.451-.28 2.812-.778 3.83-.453.927-1.058 1.459-1.657 1.459z"/>
            <rect width="1.902" height="10.499" x="32.996" y="11.348" fill="#A5A5A5" rx=".951"/>
            <path fill="#A5A5A5" d="M25.125 10.625c0-.474-.238-.878-.571-1.035v2.07c.333-.156.57-.56.57-1.035zM23.375 10.625c0 .61.392 1.103.875 1.103V9.52c-.483 0-.875.496-.875 1.105zM24.554 9.52h-.304c.105 0 .209.024.304.069V9.52zM24.554 11.728v-.069c-.095.045-.199.069-.304.069h.304z"/>
            <path fill="#A5A5A5" d="M24.25 9.52v2.208c.105 0 .209-.024.304-.069V9.59c-.095-.045-.199-.069-.304-.07z"/>
            <ellipse cx="24.554" cy="10.625" fill="#FFF" rx="1" ry="1.103"/>
            <path fill="#A5A5A5" d="M40.297 12.223c.014-.408-.215-.786-.582-.963v1.927c.367-.178.595-.556.582-.964zM38.51 12.223c0 .56.4 1.027.894 1.027V11.2c-.494 0-.894.455-.894 1.023zM39.715 11.2h-.311c.107 0 .212.022.31.064V11.2z"/>
            <path fill="#A5A5A5" d="M39.715 13.25v-.063c-.099.041-.204.063-.311.063h.31z"/>
            <path fill="#A5A5A5" d="M39.404 11.2v2.05c.107 0 .212-.022.31-.063V11.26c-.098-.041-.204-.061-.31-.06z"/>
            <ellipse cx="39.737" cy="12.223" fill="#FFF" rx="1" ry="1.028"/>
            <path fill="#A5A5A5" d="M41.485 12.698c.013-.24-.108-.466-.314-.588v1.177c.206-.123.327-.35.314-.589zM40.532 12.698c0 .347.215.629.48.629v-1.26c-.272.004-.48.285-.48.631z"/>
            <path fill="#A5A5A5" d="M41.171 12.07h-.166c.058.001.115.014.166.04v-.04zM41.171 13.327v-.04c-.051.026-.108.04-.166.04h.166z"/>
            <path fill="#A5A5A5" d="M41.005 12.07v1.26c.058 0 .115-.013.166-.038V12.11c-.051-.026-.108-.039-.166-.04z"/>
            <circle cx="41.184" cy="12.698" r="1" fill="#FFF"/>
            <path fill="#A5A5A5" d="M23.024 10.872c.01-.31-.164-.596-.443-.73v1.461c.28-.134.454-.42.443-.73zM21.664 10.872c0 .432.305.78.68.78v-1.56c-.375 0-.68.35-.68.78z"/>
            <path fill="#A5A5A5" d="M22.58 10.093h-.242c.082 0 .162.016.237.049l.006-.05zM22.58 11.652v-.049c-.074.033-.155.05-.236.05h.237z"/>
            <path fill="#A5A5A5" d="M22.338 10.093v1.56c.082 0 .162-.017.237-.05v-1.461c-.075-.033-.155-.05-.237-.05z"/>
            <circle cx="22.581" cy="10.872" r="1" fill="#FFF"/>
            <rect width="2.053" height="10.842" x="27.33" y="10.892" fill="#A5A5A5" rx="1.027"/>
            <path fill="#A5A5A5" d="M28.318 10.892L29.346 10.892 29.383 21.732 28.318 21.734zM36.532 14.468L35.582 14.581 35.695 17.587 36.532 17.7zM35.033 21.847L33.946 21.847 33.946 11.348 35.011 11.348z"/>
            <rect width="1.902" height="10.499" x="34.061" y="11.348" fill="#FFF" rx=".951"/>
            <path fill="#A5A5A5" d="M25.697 16.674c.487.27 1.028.426 1.583.456v-3.344c-.606.048-1.178.304-1.618.724-.164.163-.367.28-.59.34-.66.174-1.284.464-1.842.858-.13.096-.184.266-.132.42.053.153.198.255.36.252.7-.025 1.59.01 2.24.294z"/>
            <rect width="1.406" height="3.347" x="26.646" y="13.783" fill="#FFF" rx=".703"/>
            <rect width="1.406" height="3.234" x="35.848" y="14.468" fill="#FFF" rx=".703"/>
            <path fill="#FFF" d="M25.657 18.2c.072.824.645 1.518 1.44 1.746h.57c.203-.12.332-.335.342-.571 0 0 0-.647-.266-.647s-.874.075-.99-1.028c-.086-.84-1.887-.58-2.763-.407-.064.01-.113.063-.118.127-.005.065.035.125.097.144l1.688.636z"/>
            <path fill="#444" d="M30.372 17.191L32.996 17.282 33.946 20.87 33.946 22.912 33.186 23.712 29.556 23.632 29.574 21.809z"/>
            <path fill="#CECECE" d="M32.996 17.282L32.996 13.216 30.372 13.028 30.296 17.206z"/>
            <path fill="#A8A8A8" d="M30.411 17.853L32.692 17.853 33.529 20.859 33.529 22.228 30.79 22.151 30.752 20.821z"/>
            <rect width="2.053" height="10.842" x="28.318" y="10.892" fill="#FFF" rx="1.027"/>
        </g>
    </g>
</svg>
